<?xml version="1.0" encoding="UTF-8"?>
<svg id="Layer_2" data-name="Layer 2" xmlns="http://www.w3.org/2000/svg" viewBox="0 0 1427.32 447.52">
  <defs>
    <style>
      .cls-1 {
        fill: #fff;
      }

      .cls-2 {
        fill: #8405ce;
      }
    </style>
  </defs>
  <g id="Layer_1-2" data-name="Layer 1">
    <g>
      <path class="cls-1" d="M239.42,297.23c-13.82-14.02-33.13-23.68-57.92-28.96l-71.95-15.85c-24.38-5.69-36.58-17.07-36.58-34.14,0-11.39,4.58-20.84,13.72-28.36,9.15-7.51,22.46-11.27,39.94-11.27,19.1,0,34.75,4.47,46.94,13.41,10.63,7.79,17.55,17.89,20.77,30.31.81,3.15,4,5.06,7.18,4.39l48.14-10.21c3.48-.74,5.59-4.27,4.63-7.7-6.5-23.09-20.1-42-40.78-56.73-22.56-16.05-50.91-24.08-85.06-24.08-36.17,0-65.13,8.84-86.88,26.52-21.74,17.68-32.62,40.75-32.62,69.2,0,42.68,27.44,70.12,82.31,82.31l65.85,13.41c27.23,6.1,40.85,18.09,40.85,35.98,0,12.19-5.39,21.95-16.16,29.26-10.77,7.32-25.3,10.98-43.59,10.98-21.14,0-38.51-4.27-52.13-12.81-11.94-7.48-19.42-18.24-22.46-32.28-.72-3.34-3.94-5.51-7.28-4.8l-51.47,10.89c-3.27.69-5.36,3.86-4.77,7.14,4.76,26.35,18.69,46.62,41.78,60.82,24.79,15.24,55.07,22.86,90.84,22.86,38.62,0,69.51-8.53,92.68-25.61,23.17-17.07,34.75-41.05,34.75-71.94,0-21.14-6.91-38.72-20.73-52.74Z"/>
      <path class="cls-1" d="M548.77,174.07c-31.09-29.47-69.4-44.2-114.92-44.2s-84.04,14.73-115.54,44.2c-31.5,29.47-47.25,67.37-47.25,113.71s15.75,84.34,47.25,114.01c31.5,29.68,70.01,44.51,115.54,44.51s83.32-14.83,114.62-44.51c31.3-29.67,46.94-67.67,46.94-114.01s-15.54-84.24-46.64-113.71ZM503.96,362.47c-19.92,19.31-43.29,28.96-70.11,28.96s-51.32-9.65-71.03-28.96c-19.72-19.31-29.57-44.2-29.57-74.69s9.85-55.38,29.57-74.69c19.71-19.3,43.39-28.96,71.03-28.96s50.19,9.66,70.11,28.96c19.92,19.31,29.87,44.21,29.87,74.69s-9.95,55.38-29.87,74.69Z"/>
      <path class="cls-1" d="M671.24,0h-50.41c-3.59,0-6.5,2.91-6.5,6.5v425.99c0,3.59,2.91,6.5,6.5,6.5h50.41c3.59,0,6.5-2.91,6.5-6.5V6.5c0-3.59-2.91-6.5-6.5-6.5Z"/>
      <path class="cls-1" d="M762.23,136.58h-51.52c-3.28,0-5.94,2.66-5.94,5.94v290.52c0,3.28,2.66,5.95,5.94,5.95h51.52c3.28,0,5.94-2.67,5.94-5.95V142.52c0-3.28-2.66-5.94-5.94-5.94ZM765.12,17.69c-7.72-7.73-17.27-11.59-28.65-11.59s-21.54,3.86-29.27,11.59c-7.72,7.72-11.58,17.07-11.58,28.04s3.86,20.73,11.58,28.05c7.73,7.31,17.48,10.97,29.27,10.97s21.44-3.66,28.96-10.97c7.52-7.32,11.28-16.67,11.28-28.05s-3.86-20.32-11.59-28.04Z"/>
      <path class="cls-1" d="M1107.77,0h-54.45c-2.64,0-4.79,2.15-4.79,4.79v155.37c0,4.11-4.85,6.32-7.93,3.59-26.9-23.81-60.83-35.71-101.81-35.71s-75.81,15.04-105.48,45.12c-29.67,30.08-44.51,68.28-44.51,114.62s14.84,84.55,44.51,114.62c29.67,30.08,64.83,45.12,105.48,45.12s74.63-11.78,101.85-35.33c3.09-2.67,7.89-.46,7.89,3.63v18.38c0,2.64,2.15,4.79,4.79,4.79h54.45c2.64,0,4.78-2.15,4.78-4.79V4.79c0-2.64-2.14-4.79-4.78-4.79ZM1018.66,362.77c-19.92,19.11-43.09,28.66-69.51,28.66-28.04,0-51.41-9.45-70.11-28.35-18.7-18.9-28.05-44-28.05-75.3s9.35-55.89,28.05-74.99c18.7-19.11,42.07-28.66,70.11-28.66,26.42,0,49.59,9.66,69.51,28.96,19.92,19.31,29.87,44.21,29.87,74.69s-9.95,55.89-29.87,74.99Z"/>
      <g>
        <polygon class="cls-2" points="1310.31 294.91 1310.25 294.97 1310.06 294.78 1310.03 294.74 1310.08 294.69 1310.11 294.72 1310.31 294.91"/>
        <polygon class="cls-2" points="1310.11 294.72 1310.06 294.78 1310.03 294.74 1310.08 294.69 1310.11 294.72"/>
        <path class="cls-2" d="M1310.31,294.91l-.06.06-.19-.19-.03-.04.05-.05.03.03.2.19,94.92-98.28c10.7-10.96,10.49-28.52-.48-39.22l-19.72-19.25-114.34,117.15-.1.1-116.86-114.83-19.32,19.66c-10.73,10.93-10.57,28.49.35,39.22l97.21,95.51-114.26,117.05,19.72,19.25c10.96,10.7,28.52,10.48,39.22-.47l94.18-96.49,101.72,97.83c8.9,8.71,23.19,8.57,31.91-.34l22.86-23.34-117.01-113.55ZM1304.55,298.86l-28.53,29.23c-2.5,2.55-6.6,2.6-9.16.11l-29.23-28.54c-2.55-2.49-2.6-6.59-.11-9.15l28.54-29.23c2.49-2.56,6.59-2.61,9.15-.11l29.23,28.53c2.56,2.5,2.61,6.6.11,9.16Z"/>
        <polygon class="cls-2" points="1310.31 294.91 1310.25 294.97 1310.06 294.78 1310.03 294.74 1310.08 294.69 1310.11 294.72 1310.31 294.91"/>
      </g>
    </g>
  </g>
</svg>