<?xml version="1.0" encoding="UTF-8"?>
<svg id="Layer_2" data-name="Layer 2" xmlns="http://www.w3.org/2000/svg" viewBox="0 0 309.6 300.99">
  <defs>
    <style>
      .cls-1 {
        fill: #8405ce;
      }
    </style>
  </defs>
  <g id="Layer_1-2" data-name="Layer 1">
    <g>
      <polygon class="cls-1" points="192.59 156.74 192.53 156.8 192.35 156.62 192.31 156.57 192.36 156.52 192.4 156.56 192.59 156.74"/>
      <polygon class="cls-1" points="192.4 156.56 192.35 156.62 192.31 156.57 192.36 156.52 192.4 156.56"/>
      <path class="cls-1" d="M192.59,156.74l-.06.06-.18-.18-.04-.05.05-.05.04.04.19.18,94.92-98.27c10.7-10.96,10.49-28.52-.47-39.22L267.32,0l-114.34,117.15-.1.11L36.01,2.42l-19.31,19.66c-10.73,10.93-10.58,28.48.35,39.22l97.21,95.5L0,273.86l19.72,19.25c10.96,10.69,28.52,10.48,39.21-.48l94.19-96.48,101.72,97.82c8.9,8.72,23.19,8.57,31.9-.33l22.86-23.34-117.01-113.56ZM186.84,160.69l-28.53,29.23c-2.5,2.56-6.6,2.61-9.16.11l-29.23-28.53c-2.56-2.5-2.61-6.59-.11-9.15l28.53-29.23c2.5-2.56,6.6-2.61,9.16-.11l29.23,28.53c2.56,2.5,2.61,6.6.11,9.15Z"/>
      <polygon class="cls-1" points="192.59 156.74 192.53 156.8 192.35 156.62 192.31 156.57 192.36 156.52 192.4 156.56 192.59 156.74"/>
    </g>
  </g>
</svg>